<svg width="262" height="254" viewBox="0 0 262 254" fill="none" xmlns="http://www.w3.org/2000/svg">
<path d="M62.0047 188.8C62.0047 187.933 62.158 187.087 62.4647 186.26C62.7714 185.42 63.218 184.66 63.8047 183.98C64.4047 183.287 65.1314 182.74 65.9847 182.34C66.838 181.927 67.8047 181.72 68.8847 181.72C70.1647 181.72 71.2714 182.013 72.2047 182.6C73.138 183.173 73.8314 183.913 74.2847 184.82L72.5247 186C72.258 185.427 71.918 184.973 71.5047 184.64C71.1047 184.307 70.6647 184.073 70.1847 183.94C69.718 183.807 69.258 183.74 68.8047 183.74C68.058 183.74 67.4047 183.893 66.8447 184.2C66.2847 184.493 65.8114 184.887 65.4247 185.38C65.0514 185.873 64.7647 186.427 64.5647 187.04C64.378 187.653 64.2847 188.267 64.2847 188.88C64.2847 189.56 64.398 190.22 64.6247 190.86C64.8514 191.487 65.1647 192.047 65.5647 192.54C65.978 193.02 66.4647 193.4 67.0247 193.68C67.5847 193.96 68.198 194.1 68.8647 194.1C69.318 194.1 69.7914 194.02 70.2847 193.86C70.778 193.7 71.2314 193.453 71.6447 193.12C72.0714 192.773 72.4047 192.32 72.6447 191.76L74.5047 192.82C74.2114 193.527 73.7514 194.127 73.1247 194.62C72.5114 195.113 71.818 195.487 71.0447 195.74C70.2847 195.993 69.5314 196.12 68.7847 196.12C67.7847 196.12 66.8714 195.913 66.0447 195.5C65.218 195.073 64.5047 194.513 63.9047 193.82C63.3047 193.113 62.838 192.327 62.5047 191.46C62.1714 190.58 62.0047 189.693 62.0047 188.8ZM76.3166 181.4H78.5166V192.98C78.5166 193.513 78.5966 193.853 78.7566 194C78.9166 194.147 79.1166 194.22 79.3566 194.22C79.6232 194.22 79.8699 194.193 80.0966 194.14C80.3366 194.087 80.5432 194.02 80.7166 193.94L81.0366 195.68C80.7166 195.813 80.3366 195.927 79.8966 196.02C79.4566 196.113 79.0632 196.16 78.7166 196.16C77.9699 196.16 77.3832 195.953 76.9566 195.54C76.5299 195.113 76.3166 194.527 76.3166 193.78V181.4ZM87.0522 196.2C86.2389 196.2 85.4989 196.06 84.8322 195.78C84.1789 195.487 83.6122 195.093 83.1322 194.6C82.6522 194.093 82.2789 193.52 82.0122 192.88C81.7589 192.227 81.6322 191.533 81.6322 190.8C81.6322 189.813 81.8589 188.913 82.3122 188.1C82.7655 187.273 83.3989 186.613 84.2122 186.12C85.0255 185.613 85.9789 185.36 87.0722 185.36C88.1655 185.36 89.1055 185.613 89.8922 186.12C90.6922 186.613 91.3122 187.267 91.7522 188.08C92.1922 188.893 92.4122 189.767 92.4122 190.7C92.4122 190.86 92.4055 191.013 92.3922 191.16C92.3789 191.293 92.3655 191.407 92.3522 191.5H83.9722C84.0122 192.113 84.1789 192.653 84.4722 193.12C84.7789 193.573 85.1655 193.933 85.6322 194.2C86.0989 194.453 86.5989 194.58 87.1322 194.58C87.7189 194.58 88.2722 194.433 88.7922 194.14C89.3255 193.847 89.6855 193.46 89.8722 192.98L91.7522 193.52C91.5255 194.027 91.1789 194.487 90.7122 194.9C90.2589 195.3 89.7189 195.62 89.0922 195.86C88.4655 196.087 87.7855 196.2 87.0522 196.2ZM83.9122 190.04H90.2322C90.1922 189.44 90.0189 188.913 89.7122 188.46C89.4189 187.993 89.0389 187.633 88.5722 187.38C88.1189 187.113 87.6122 186.98 87.0522 186.98C86.5055 186.98 85.9989 187.113 85.5322 187.38C85.0789 187.633 84.7055 187.993 84.4122 188.46C84.1189 188.913 83.9522 189.44 83.9122 190.04ZM93.4467 192.94C93.4467 192.273 93.6334 191.693 94.0067 191.2C94.3934 190.693 94.9201 190.307 95.5867 190.04C96.2534 189.76 97.0267 189.62 97.9067 189.62C98.3734 189.62 98.8467 189.653 99.3267 189.72C99.8201 189.787 100.253 189.893 100.627 190.04V189.38C100.627 188.647 100.407 188.073 99.9667 187.66C99.5267 187.247 98.8934 187.04 98.0667 187.04C97.4801 187.04 96.9267 187.147 96.4067 187.36C95.8867 187.56 95.3334 187.847 94.7467 188.22L94.0067 186.74C94.7001 186.273 95.3934 185.927 96.0867 185.7C96.7934 185.473 97.5334 185.36 98.3067 185.36C99.7067 185.36 100.807 185.733 101.607 186.48C102.42 187.213 102.827 188.26 102.827 189.62V193.52C102.827 193.773 102.867 193.953 102.947 194.06C103.04 194.167 103.193 194.227 103.407 194.24V196C103.207 196.04 103.027 196.067 102.867 196.08C102.707 196.093 102.573 196.1 102.467 196.1C102 196.1 101.647 195.987 101.407 195.76C101.167 195.533 101.027 195.267 100.987 194.96L100.927 194.36C100.473 194.947 99.8934 195.4 99.1867 195.72C98.4801 196.04 97.7667 196.2 97.0467 196.2C96.3534 196.2 95.7334 196.06 95.1867 195.78C94.6401 195.487 94.2134 195.093 93.9067 194.6C93.6001 194.107 93.4467 193.553 93.4467 192.94ZM100.107 193.58C100.267 193.407 100.393 193.233 100.487 193.06C100.58 192.887 100.627 192.733 100.627 192.6V191.4C100.253 191.253 99.8601 191.147 99.4467 191.08C99.0334 191 98.6267 190.96 98.2267 190.96C97.4267 190.96 96.7734 191.12 96.2667 191.44C95.7734 191.76 95.5267 192.2 95.5267 192.76C95.5267 193.067 95.6067 193.36 95.7667 193.64C95.9401 193.92 96.1801 194.147 96.4867 194.32C96.8067 194.493 97.2001 194.58 97.6667 194.58C98.1467 194.58 98.6067 194.487 99.0467 194.3C99.4867 194.113 99.8401 193.873 100.107 193.58ZM114.876 196H112.676V190.14C112.676 189.167 112.516 188.453 112.196 188C111.889 187.547 111.429 187.32 110.816 187.32C110.389 187.32 109.962 187.427 109.536 187.64C109.122 187.853 108.749 188.147 108.416 188.52C108.082 188.88 107.842 189.3 107.696 189.78V196H105.496V185.54H107.496V187.64C107.762 187.173 108.109 186.773 108.536 186.44C108.976 186.093 109.469 185.827 110.016 185.64C110.562 185.453 111.142 185.36 111.756 185.36C112.382 185.36 112.896 185.473 113.296 185.7C113.709 185.927 114.029 186.24 114.256 186.64C114.496 187.027 114.656 187.48 114.736 188C114.829 188.507 114.876 189.047 114.876 189.62V196ZM131.051 185.14C130.917 184.993 130.724 184.84 130.471 184.68C130.217 184.507 129.917 184.347 129.571 184.2C129.224 184.053 128.851 183.933 128.451 183.84C128.051 183.747 127.637 183.7 127.211 183.7C126.277 183.7 125.584 183.873 125.131 184.22C124.677 184.567 124.451 185.047 124.451 185.66C124.451 186.113 124.577 186.473 124.831 186.74C125.084 186.993 125.471 187.207 125.991 187.38C126.511 187.553 127.164 187.74 127.951 187.94C128.911 188.167 129.744 188.44 130.451 188.76C131.157 189.067 131.697 189.48 132.071 190C132.444 190.52 132.631 191.207 132.631 192.06C132.631 192.78 132.497 193.4 132.231 193.92C131.964 194.44 131.591 194.867 131.111 195.2C130.631 195.52 130.077 195.76 129.451 195.92C128.824 196.067 128.151 196.14 127.431 196.14C126.724 196.14 126.017 196.067 125.311 195.92C124.617 195.773 123.951 195.56 123.311 195.28C122.684 194.987 122.104 194.633 121.571 194.22L122.591 192.3C122.764 192.473 123.011 192.667 123.331 192.88C123.664 193.08 124.044 193.273 124.471 193.46C124.911 193.647 125.384 193.807 125.891 193.94C126.411 194.06 126.937 194.12 127.471 194.12C128.364 194.12 129.044 193.967 129.511 193.66C129.991 193.34 130.231 192.887 130.231 192.3C130.231 191.82 130.077 191.44 129.771 191.16C129.464 190.867 129.017 190.62 128.431 190.42C127.844 190.22 127.144 190.02 126.331 189.82C125.397 189.567 124.617 189.293 123.991 189C123.364 188.693 122.891 188.307 122.571 187.84C122.264 187.36 122.111 186.753 122.111 186.02C122.111 185.087 122.337 184.3 122.791 183.66C123.244 183.007 123.857 182.52 124.631 182.2C125.417 181.867 126.297 181.7 127.271 181.7C127.911 181.7 128.517 181.773 129.091 181.92C129.664 182.053 130.197 182.24 130.691 182.48C131.197 182.72 131.657 182.993 132.071 183.3L131.051 185.14ZM140.203 195.46C140.016 195.553 139.783 195.653 139.503 195.76C139.223 195.867 138.903 195.96 138.543 196.04C138.196 196.12 137.836 196.16 137.463 196.16C137.009 196.16 136.589 196.08 136.203 195.92C135.816 195.76 135.503 195.507 135.263 195.16C135.036 194.8 134.923 194.34 134.923 193.78V187.24H133.543V185.54H134.923V182.1H137.123V185.54H139.403V187.24H137.123V193.08C137.149 193.44 137.263 193.707 137.463 193.88C137.676 194.053 137.936 194.14 138.243 194.14C138.549 194.14 138.843 194.087 139.123 193.98C139.403 193.873 139.609 193.787 139.743 193.72L140.203 195.46ZM147.606 187.44C146.753 187.453 145.993 187.647 145.326 188.02C144.673 188.393 144.206 188.92 143.926 189.6V196H141.726V185.54H143.766V187.88C144.126 187.16 144.6 186.587 145.186 186.16C145.773 185.72 146.393 185.48 147.046 185.44C147.18 185.44 147.286 185.44 147.366 185.44C147.46 185.44 147.54 185.447 147.606 185.46V187.44ZM148.427 192.94C148.427 192.273 148.614 191.693 148.987 191.2C149.374 190.693 149.901 190.307 150.567 190.04C151.234 189.76 152.007 189.62 152.887 189.62C153.354 189.62 153.827 189.653 154.307 189.72C154.801 189.787 155.234 189.893 155.607 190.04V189.38C155.607 188.647 155.387 188.073 154.947 187.66C154.507 187.247 153.874 187.04 153.047 187.04C152.461 187.04 151.907 187.147 151.387 187.36C150.867 187.56 150.314 187.847 149.727 188.22L148.987 186.74C149.681 186.273 150.374 185.927 151.067 185.7C151.774 185.473 152.514 185.36 153.287 185.36C154.687 185.36 155.787 185.733 156.587 186.48C157.401 187.213 157.807 188.26 157.807 189.62V193.52C157.807 193.773 157.847 193.953 157.927 194.06C158.021 194.167 158.174 194.227 158.387 194.24V196C158.187 196.04 158.007 196.067 157.847 196.08C157.687 196.093 157.554 196.1 157.447 196.1C156.981 196.1 156.627 195.987 156.387 195.76C156.147 195.533 156.007 195.267 155.967 194.96L155.907 194.36C155.454 194.947 154.874 195.4 154.167 195.72C153.461 196.04 152.747 196.2 152.027 196.2C151.334 196.2 150.714 196.06 150.167 195.78C149.621 195.487 149.194 195.093 148.887 194.6C148.581 194.107 148.427 193.553 148.427 192.94ZM155.087 193.58C155.247 193.407 155.374 193.233 155.467 193.06C155.561 192.887 155.607 192.733 155.607 192.6V191.4C155.234 191.253 154.841 191.147 154.427 191.08C154.014 191 153.607 190.96 153.207 190.96C152.407 190.96 151.754 191.12 151.247 191.44C150.754 191.76 150.507 192.2 150.507 192.76C150.507 193.067 150.587 193.36 150.747 193.64C150.921 193.92 151.161 194.147 151.467 194.32C151.787 194.493 152.181 194.58 152.647 194.58C153.127 194.58 153.587 194.487 154.027 194.3C154.467 194.113 154.821 193.873 155.087 193.58ZM166.218 195.46C166.031 195.553 165.798 195.653 165.518 195.76C165.238 195.867 164.918 195.96 164.558 196.04C164.211 196.12 163.851 196.16 163.478 196.16C163.025 196.16 162.605 196.08 162.218 195.92C161.831 195.76 161.518 195.507 161.278 195.16C161.051 194.8 160.938 194.34 160.938 193.78V187.24H159.558V185.54H160.938V182.1H163.138V185.54H165.418V187.24H163.138V193.08C163.165 193.44 163.278 193.707 163.478 193.88C163.691 194.053 163.951 194.14 164.258 194.14C164.565 194.14 164.858 194.087 165.138 193.98C165.418 193.873 165.625 193.787 165.758 193.72L166.218 195.46ZM172.345 196.2C171.532 196.2 170.792 196.06 170.125 195.78C169.472 195.487 168.905 195.093 168.425 194.6C167.945 194.093 167.572 193.52 167.305 192.88C167.052 192.227 166.925 191.533 166.925 190.8C166.925 189.813 167.152 188.913 167.605 188.1C168.058 187.273 168.692 186.613 169.505 186.12C170.318 185.613 171.272 185.36 172.365 185.36C173.458 185.36 174.398 185.613 175.185 186.12C175.985 186.613 176.605 187.267 177.045 188.08C177.485 188.893 177.705 189.767 177.705 190.7C177.705 190.86 177.698 191.013 177.685 191.16C177.672 191.293 177.658 191.407 177.645 191.5H169.265C169.305 192.113 169.472 192.653 169.765 193.12C170.072 193.573 170.458 193.933 170.925 194.2C171.392 194.453 171.892 194.58 172.425 194.58C173.012 194.58 173.565 194.433 174.085 194.14C174.618 193.847 174.978 193.46 175.165 192.98L177.045 193.52C176.818 194.027 176.472 194.487 176.005 194.9C175.552 195.3 175.012 195.62 174.385 195.86C173.758 196.087 173.078 196.2 172.345 196.2ZM169.205 190.04H175.525C175.485 189.44 175.312 188.913 175.005 188.46C174.712 187.993 174.332 187.633 173.865 187.38C173.412 187.113 172.905 186.98 172.345 186.98C171.798 186.98 171.292 187.113 170.825 187.38C170.372 187.633 169.998 187.993 169.705 188.46C169.412 188.913 169.245 189.44 169.205 190.04ZM183.64 196.1C182.933 196.1 182.286 195.96 181.7 195.68C181.113 195.387 180.606 194.993 180.18 194.5C179.766 194.007 179.44 193.44 179.2 192.8C178.973 192.16 178.86 191.487 178.86 190.78C178.86 190.033 178.98 189.333 179.22 188.68C179.46 188.027 179.793 187.453 180.22 186.96C180.66 186.453 181.173 186.06 181.76 185.78C182.346 185.5 183 185.36 183.72 185.36C184.56 185.36 185.293 185.56 185.92 185.96C186.56 186.36 187.086 186.88 187.5 187.52V185.54H189.44V195.7C189.44 196.713 189.193 197.573 188.7 198.28C188.22 198.987 187.56 199.527 186.72 199.9C185.88 200.273 184.933 200.46 183.88 200.46C182.72 200.46 181.76 200.26 181 199.86C180.24 199.46 179.593 198.913 179.06 198.22L180.3 197.06C180.7 197.62 181.213 198.047 181.84 198.34C182.48 198.633 183.16 198.78 183.88 198.78C184.48 198.78 185.033 198.667 185.54 198.44C186.06 198.227 186.473 197.887 186.78 197.42C187.086 196.967 187.24 196.393 187.24 195.7V194.1C186.866 194.727 186.353 195.22 185.7 195.58C185.046 195.927 184.36 196.1 183.64 196.1ZM184.36 194.32C184.693 194.32 185.013 194.267 185.32 194.16C185.626 194.04 185.906 193.887 186.16 193.7C186.426 193.5 186.653 193.28 186.84 193.04C187.026 192.787 187.16 192.52 187.24 192.24V189.5C187.066 189.047 186.82 188.653 186.5 188.32C186.18 187.973 185.82 187.707 185.42 187.52C185.02 187.333 184.613 187.24 184.2 187.24C183.72 187.24 183.286 187.347 182.9 187.56C182.526 187.76 182.206 188.033 181.94 188.38C181.673 188.713 181.466 189.093 181.32 189.52C181.173 189.947 181.1 190.387 181.1 190.84C181.1 191.32 181.18 191.767 181.34 192.18C181.513 192.593 181.746 192.967 182.04 193.3C182.333 193.62 182.68 193.873 183.08 194.06C183.48 194.233 183.906 194.32 184.36 194.32ZM192.438 198.46C192.638 198.487 192.831 198.513 193.018 198.54C193.218 198.58 193.378 198.6 193.498 198.6C193.724 198.6 193.918 198.527 194.078 198.38C194.251 198.247 194.424 197.993 194.598 197.62C194.771 197.247 194.984 196.707 195.238 196L190.938 185.54H193.238L196.438 193.76L199.278 185.54H201.398L196.658 198.42C196.511 198.807 196.298 199.16 196.018 199.48C195.738 199.813 195.391 200.073 194.978 200.26C194.564 200.447 194.078 200.54 193.518 200.54C193.358 200.54 193.191 200.527 193.018 200.5C192.844 200.473 192.651 200.433 192.438 200.38V198.46Z" fill="white"/>
<g opacity="0.5" clip-path="url(#clip0_707_326)">
<path d="M143.398 77.9708C141.781 76.5243 139.921 75.4495 137.869 74.7762C135.727 74.0731 133.484 73.8462 131.201 74.1017C124.141 74.8918 118.385 80.5789 117.516 87.6243C116.868 92.8721 118.863 98.0447 122.852 101.461C124.358 102.751 125.221 104.702 125.221 106.815V107.611C125.221 108.622 125.878 109.483 126.787 109.789V117.005C126.787 118.494 127.849 119.74 129.255 120.025L129.681 122.153C129.895 123.223 130.842 124 131.934 124H134.064C135.156 124 136.103 123.223 136.317 122.153L136.743 120.025C138.149 119.74 139.211 118.494 139.211 117.005V109.789C140.12 109.483 140.777 108.623 140.777 107.612V106.75C140.777 104.717 141.701 102.736 143.313 101.316C146.676 98.3527 148.605 94.0848 148.605 89.6068C148.605 85.171 146.707 80.9298 143.398 77.9708ZM134.881 121.866C134.803 122.254 134.46 122.535 134.064 122.535H131.934C131.538 122.535 131.194 122.254 131.117 121.866L130.761 120.086H135.237L134.881 121.866ZM137.746 111.627L136.861 111.69C136.458 111.718 136.154 112.069 136.183 112.472C136.21 112.858 136.532 113.153 136.913 113.153C136.93 113.153 136.948 113.152 136.965 113.151L137.746 113.095V114.758L136.86 114.821C136.457 114.85 136.153 115.2 136.182 115.604C136.21 115.989 136.531 116.284 136.912 116.284C136.929 116.284 136.947 116.283 136.965 116.282L137.746 116.226V117.005C137.746 117.896 137.021 118.621 136.13 118.621H136.129C136.127 118.621 136.125 118.621 136.123 118.621H129.874C129.872 118.621 129.871 118.621 129.869 118.621H129.867C128.976 118.621 128.251 117.897 128.251 117.005V116.905L133.834 116.506C134.238 116.477 134.542 116.127 134.513 115.723C134.484 115.319 134.133 115.016 133.73 115.045L128.251 115.436V113.773L133.833 113.375C134.237 113.346 134.54 112.995 134.512 112.592C134.483 112.188 134.132 111.885 133.729 111.913L128.251 112.305V109.91H137.746V111.627ZM132.096 94.2532H132.266V97.435C132.266 97.8395 132.594 98.1674 132.999 98.1674C133.403 98.1674 133.731 97.8395 133.731 97.435V94.2532H133.901C134.645 94.2532 135.274 93.7207 135.396 92.9871L135.968 89.5537C136.02 89.5554 136.073 89.5563 136.127 89.5563C137.084 89.5563 137.604 89.2965 138.022 89.0877C138.227 88.985 138.401 88.8984 138.622 88.8424L134.947 98.0287C134.727 98.5801 134.615 99.1607 134.615 99.7544V99.7834C134.615 100.675 133.89 101.399 132.999 101.399C132.108 101.399 131.383 100.674 131.383 99.7834V99.7544C131.383 99.1607 131.271 98.5801 131.051 98.0287L127.376 88.8429C127.596 88.8989 127.768 88.9852 127.973 89.0875C128.39 89.2964 128.91 89.5563 129.865 89.5563C129.921 89.5563 129.976 89.5553 130.03 89.5536L130.602 92.9871C130.724 93.7208 131.352 94.2532 132.096 94.2532ZM131.461 89.2302C131.566 89.1823 131.664 89.1337 131.757 89.0875C132.121 88.9053 132.384 88.7735 132.993 88.7735C133.604 88.7735 133.868 88.9054 134.233 89.0877C134.327 89.1349 134.428 89.1847 134.536 89.2335L133.951 92.7463C133.947 92.7707 133.926 92.7884 133.901 92.7884H132.096C132.072 92.7884 132.051 92.7707 132.047 92.7463L131.461 89.2302ZM134.615 102.405V108.445H131.383V102.405H131.383C131.853 102.696 132.407 102.864 132.999 102.864C133.591 102.864 134.145 102.696 134.615 102.405ZM142.344 100.217C140.417 101.915 139.312 104.296 139.312 106.75V107.612C139.312 108.071 138.938 108.445 138.478 108.445H136.08V99.7543C136.08 99.3478 136.156 98.9502 136.307 98.5727L140.724 87.5304C140.874 87.1548 140.692 86.7286 140.316 86.5783C139.94 86.428 139.514 86.6108 139.364 86.9863L139.235 87.3092C138.296 87.314 137.781 87.5705 137.367 87.7773C137.002 87.9598 136.738 88.0915 136.127 88.0915C135.516 88.0915 135.252 87.9597 134.887 87.7773C134.469 87.5685 133.949 87.3088 132.993 87.3088C132.038 87.3088 131.518 87.5687 131.101 87.7776C130.737 87.9599 130.473 88.0916 129.864 88.0916C129.255 88.0916 128.992 87.9599 128.628 87.7776C128.214 87.5707 127.7 87.314 126.762 87.3093L126.633 86.9864C126.483 86.6108 126.057 86.4282 125.681 86.5784C125.305 86.7287 125.123 87.1549 125.273 87.5305L129.69 98.5728C129.841 98.9503 129.917 99.3479 129.917 99.7545V108.445H127.519C127.059 108.445 126.685 108.071 126.685 107.612V106.815C126.685 104.274 125.635 101.917 123.804 100.349C120.189 97.2526 118.381 92.563 118.969 87.8039C119.756 81.4235 124.969 76.2732 131.364 75.5576C131.919 75.4955 132.471 75.4647 133.018 75.4647C136.504 75.4647 139.795 76.7136 142.422 79.0628C145.42 81.7443 147.14 85.5874 147.14 89.6069C147.14 93.6644 145.392 97.5317 142.344 100.217Z" fill="white"/>
</g>
<path fill-rule="evenodd" clip-rule="evenodd" d="M79.6145 85.3974L83.4996 70.8978L69 74.783L79.6145 85.3974ZM78.6392 81.7577L80.8352 73.5623L72.6397 75.7582L78.6392 81.7577Z" fill="url(#paint0_linear_707_326)"/>
<path fill-rule="evenodd" clip-rule="evenodd" d="M179.863 72.5585L181.172 87.5125L193.468 78.9025L179.863 72.5585ZM182.025 75.6452L182.764 84.0974L189.714 79.2309L182.025 75.6452Z" fill="url(#paint1_linear_707_326)"/>
<path d="M137.877 50L141.342 56H134.413L137.877 50Z" fill="url(#paint2_linear_707_326)"/>
<path d="M190.363 112.828L188.569 119.521L183.67 114.622L190.363 112.828Z" fill="url(#paint3_linear_707_326)"/>
<path d="M88.5344 119.193L94.5344 122.657L88.5344 126.121L88.5344 119.193Z" fill="url(#paint4_linear_707_326)"/>
<rect x="1" y="1" width="260" height="252" stroke="#F8F8FC" stroke-opacity="0.1" stroke-width="2"/>
<defs>
<linearGradient id="paint0_linear_707_326" x1="79.6145" y1="85.3974" x2="75.1283" y2="68.6547" gradientUnits="userSpaceOnUse">
<stop stop-color="#FF455B"/>
<stop offset="1" stop-color="#FF7245"/>
</linearGradient>
<linearGradient id="paint1_linear_707_326" x1="179.863" y1="72.5585" x2="189.805" y2="86.7572" gradientUnits="userSpaceOnUse">
<stop stop-color="#FF455B"/>
<stop offset="1" stop-color="#FF7245"/>
</linearGradient>
<linearGradient id="paint2_linear_707_326" x1="137.877" y1="50" x2="137.877" y2="60.6667" gradientUnits="userSpaceOnUse">
<stop stop-color="#FF455B"/>
<stop offset="1" stop-color="#FF7245"/>
</linearGradient>
<linearGradient id="paint3_linear_707_326" x1="190.363" y1="112.828" x2="182.82" y2="120.371" gradientUnits="userSpaceOnUse">
<stop stop-color="#FF455B"/>
<stop offset="1" stop-color="#FF7245"/>
</linearGradient>
<linearGradient id="paint4_linear_707_326" x1="88.5344" y1="119.193" x2="93.8677" y2="128.43" gradientUnits="userSpaceOnUse">
<stop stop-color="#FF455B"/>
<stop offset="1" stop-color="#FF7245"/>
</linearGradient>
<clipPath id="clip0_707_326">
<rect width="50" height="50" fill="white" transform="translate(108 74)"/>
</clipPath>
</defs>
</svg>
