<svg width="262" height="254" viewBox="0 0 262 254" fill="none" xmlns="http://www.w3.org/2000/svg">
<path d="M81.459 185.14C81.3257 184.993 81.1323 184.84 80.879 184.68C80.6257 184.507 80.3257 184.347 79.979 184.2C79.6457 184.053 79.2723 183.933 78.859 183.84C78.459 183.747 78.0457 183.7 77.619 183.7C76.6723 183.7 75.9723 183.873 75.519 184.22C75.079 184.567 74.859 185.047 74.859 185.66C74.859 186.007 74.9257 186.293 75.059 186.52C75.2057 186.733 75.4257 186.927 75.719 187.1C76.0123 187.26 76.379 187.407 76.819 187.54C77.259 187.66 77.7723 187.793 78.359 187.94C79.079 188.113 79.7257 188.307 80.299 188.52C80.8857 188.733 81.379 188.993 81.779 189.3C82.179 189.607 82.4857 189.987 82.699 190.44C82.9257 190.88 83.039 191.42 83.039 192.06C83.039 192.78 82.899 193.4 82.619 193.92C82.3523 194.44 81.979 194.867 81.499 195.2C81.0323 195.52 80.4857 195.76 79.859 195.92C79.2323 196.067 78.559 196.14 77.839 196.14C76.759 196.14 75.7123 195.98 74.699 195.66C73.699 195.327 72.7923 194.847 71.979 194.22L72.999 192.3C73.1723 192.473 73.419 192.667 73.739 192.88C74.0723 193.093 74.4523 193.293 74.879 193.48C75.319 193.653 75.7923 193.807 76.299 193.94C76.8057 194.06 77.3323 194.12 77.879 194.12C78.759 194.12 79.439 193.967 79.919 193.66C80.399 193.353 80.639 192.9 80.639 192.3C80.639 191.94 80.5457 191.64 80.359 191.4C80.1857 191.16 79.9323 190.953 79.599 190.78C79.2657 190.593 78.859 190.427 78.379 190.28C77.899 190.133 77.3523 189.98 76.739 189.82C76.0323 189.633 75.4123 189.44 74.879 189.24C74.359 189.027 73.9257 188.773 73.579 188.48C73.2323 188.187 72.9657 187.847 72.779 187.46C72.6057 187.06 72.519 186.58 72.519 186.02C72.519 185.327 72.6523 184.713 72.919 184.18C73.1857 183.633 73.5457 183.18 73.999 182.82C74.4657 182.447 75.0123 182.167 75.639 181.98C76.2657 181.793 76.9457 181.7 77.679 181.7C78.639 181.7 79.5257 181.853 80.339 182.16C81.1523 182.467 81.8657 182.847 82.479 183.3L81.459 185.14ZM90.7084 195.46C90.4284 195.593 90.0417 195.747 89.5484 195.92C89.055 196.08 88.5284 196.16 87.9684 196.16C87.6217 196.16 87.295 196.113 86.9884 196.02C86.6817 195.927 86.4084 195.787 86.1684 195.6C85.9417 195.413 85.7617 195.173 85.6284 194.88C85.495 194.573 85.4284 194.207 85.4284 193.78V187.24H84.0484V185.54H85.4284V182.1H87.6284V185.54H89.9084V187.24H87.6284V193.08C87.655 193.453 87.7684 193.727 87.9684 193.9C88.1817 194.06 88.4417 194.14 88.7484 194.14C89.055 194.14 89.3484 194.087 89.6284 193.98C89.9084 193.873 90.115 193.787 90.2484 193.72L90.7084 195.46ZM98.1121 187.44C97.2588 187.467 96.4988 187.667 95.8321 188.04C95.1788 188.4 94.7121 188.92 94.4321 189.6V196H92.2321V185.54H94.2721V187.88C94.6321 187.16 95.0988 186.587 95.6721 186.16C96.2588 185.72 96.8854 185.48 97.5521 185.44C97.6854 185.44 97.7921 185.44 97.8721 185.44C97.9654 185.44 98.0454 185.447 98.1121 185.46V187.44ZM103.885 196.2C103.059 196.2 102.312 196.053 101.645 195.76C100.992 195.467 100.432 195.073 99.9652 194.58C99.4986 194.087 99.1386 193.513 98.8852 192.86C98.6319 192.193 98.5052 191.5 98.5052 190.78C98.5052 190.06 98.6319 189.373 98.8852 188.72C99.1386 188.053 99.4986 187.473 99.9652 186.98C100.445 186.487 101.012 186.093 101.665 185.8C102.332 185.507 103.072 185.36 103.885 185.36C104.699 185.36 105.432 185.507 106.085 185.8C106.752 186.093 107.319 186.487 107.785 186.98C108.265 187.473 108.632 188.053 108.885 188.72C109.139 189.373 109.265 190.06 109.265 190.78C109.265 191.5 109.139 192.193 108.885 192.86C108.632 193.513 108.265 194.087 107.785 194.58C107.319 195.073 106.752 195.467 106.085 195.76C105.432 196.053 104.699 196.2 103.885 196.2ZM100.765 190.8C100.765 191.307 100.845 191.773 101.005 192.2C101.165 192.627 101.385 193 101.665 193.32C101.945 193.627 102.272 193.873 102.645 194.06C103.032 194.233 103.445 194.32 103.885 194.32C104.325 194.32 104.732 194.233 105.105 194.06C105.492 193.873 105.825 193.62 106.105 193.3C106.385 192.98 106.605 192.607 106.765 192.18C106.925 191.753 107.005 191.287 107.005 190.78C107.005 190.287 106.925 189.827 106.765 189.4C106.605 188.96 106.385 188.58 106.105 188.26C105.825 187.94 105.492 187.693 105.105 187.52C104.732 187.333 104.325 187.24 103.885 187.24C103.459 187.24 103.052 187.333 102.665 187.52C102.292 187.707 101.965 187.96 101.685 188.28C101.405 188.6 101.179 188.98 101.005 189.42C100.845 189.847 100.765 190.307 100.765 190.8ZM120.596 196H118.396V190.14C118.396 189.153 118.236 188.44 117.916 188C117.61 187.547 117.15 187.32 116.536 187.32C116.216 187.32 115.896 187.38 115.576 187.5C115.256 187.62 114.956 187.793 114.676 188.02C114.396 188.233 114.143 188.493 113.916 188.8C113.703 189.093 113.536 189.42 113.416 189.78V196H111.216V185.54H113.216V187.64C113.616 186.933 114.196 186.38 114.956 185.98C115.716 185.567 116.556 185.36 117.476 185.36C118.103 185.36 118.616 185.473 119.016 185.7C119.416 185.927 119.73 186.24 119.956 186.64C120.196 187.027 120.363 187.48 120.456 188C120.55 188.507 120.596 189.047 120.596 189.62V196ZM127.29 196.1C126.583 196.1 125.937 195.96 125.35 195.68C124.763 195.387 124.257 194.993 123.83 194.5C123.417 194.007 123.09 193.44 122.85 192.8C122.623 192.16 122.51 191.487 122.51 190.78C122.51 190.033 122.63 189.333 122.87 188.68C123.11 188.013 123.443 187.44 123.87 186.96C124.297 186.467 124.803 186.08 125.39 185.8C125.99 185.507 126.65 185.36 127.37 185.36C128.21 185.36 128.943 185.56 129.57 185.96C130.21 186.36 130.737 186.88 131.15 187.52V185.54H133.09V195.7C133.09 196.46 132.95 197.133 132.67 197.72C132.39 198.307 131.997 198.8 131.49 199.2C130.997 199.613 130.41 199.927 129.73 200.14C129.05 200.353 128.317 200.46 127.53 200.46C126.37 200.46 125.403 200.26 124.63 199.86C123.87 199.473 123.23 198.927 122.71 198.22L123.95 197.06C124.35 197.62 124.863 198.047 125.49 198.34C126.13 198.633 126.81 198.78 127.53 198.78C127.983 198.78 128.41 198.72 128.81 198.6C129.223 198.48 129.583 198.293 129.89 198.04C130.197 197.787 130.437 197.467 130.61 197.08C130.797 196.693 130.89 196.233 130.89 195.7V194.1C130.517 194.74 130.003 195.233 129.35 195.58C128.697 195.927 128.01 196.1 127.29 196.1ZM128.01 194.32C128.343 194.32 128.663 194.267 128.97 194.16C129.277 194.04 129.557 193.887 129.81 193.7C130.077 193.5 130.303 193.28 130.49 193.04C130.677 192.787 130.81 192.52 130.89 192.24V189.5C130.757 189.167 130.583 188.867 130.37 188.6C130.157 188.32 129.91 188.08 129.63 187.88C129.363 187.68 129.077 187.527 128.77 187.42C128.463 187.3 128.157 187.24 127.85 187.24C127.37 187.24 126.937 187.347 126.55 187.56C126.177 187.76 125.857 188.033 125.59 188.38C125.323 188.713 125.117 189.093 124.97 189.52C124.823 189.947 124.75 190.387 124.75 190.84C124.75 191.32 124.83 191.773 124.99 192.2C125.163 192.613 125.397 192.98 125.69 193.3C125.983 193.607 126.323 193.853 126.71 194.04C127.11 194.227 127.543 194.32 128.01 194.32ZM150.803 183.78H146.083V196H143.823V183.78H139.083V181.8H150.803V183.78ZM154.882 196.2C154.069 196.2 153.329 196.06 152.662 195.78C151.996 195.487 151.422 195.093 150.942 194.6C150.476 194.107 150.109 193.533 149.842 192.88C149.589 192.227 149.462 191.533 149.462 190.8C149.462 190.067 149.589 189.373 149.842 188.72C150.109 188.053 150.476 187.473 150.942 186.98C151.422 186.473 151.996 186.08 152.662 185.8C153.329 185.507 154.076 185.36 154.902 185.36C155.716 185.36 156.449 185.507 157.102 185.8C157.769 186.093 158.336 186.487 158.802 186.98C159.269 187.46 159.622 188.027 159.862 188.68C160.116 189.32 160.242 189.993 160.242 190.7C160.242 190.86 160.236 191.013 160.222 191.16C160.209 191.293 160.196 191.407 160.182 191.5H151.802C151.842 191.967 151.949 192.387 152.122 192.76C152.309 193.133 152.542 193.46 152.822 193.74C153.116 194.007 153.442 194.213 153.802 194.36C154.176 194.507 154.562 194.58 154.962 194.58C155.256 194.58 155.542 194.547 155.822 194.48C156.116 194.4 156.382 194.293 156.622 194.16C156.862 194.013 157.076 193.84 157.262 193.64C157.449 193.44 157.596 193.22 157.702 192.98L159.582 193.52C159.222 194.307 158.622 194.953 157.782 195.46C156.956 195.953 155.989 196.2 154.882 196.2ZM158.062 189.98C158.022 189.54 157.909 189.133 157.722 188.76C157.549 188.387 157.322 188.073 157.042 187.82C156.762 187.553 156.436 187.347 156.062 187.2C155.689 187.053 155.296 186.98 154.882 186.98C154.469 186.98 154.076 187.053 153.702 187.2C153.342 187.347 153.022 187.553 152.742 187.82C152.462 188.073 152.236 188.387 152.062 188.76C151.889 189.133 151.782 189.54 151.742 189.98H158.062ZM164.817 196.2C164.31 196.2 163.837 196.12 163.397 195.96C162.97 195.787 162.597 195.553 162.277 195.26C161.97 194.967 161.723 194.62 161.537 194.22C161.363 193.82 161.277 193.387 161.277 192.92C161.277 192.427 161.383 191.98 161.597 191.58C161.81 191.18 162.11 190.833 162.497 190.54C162.897 190.247 163.363 190.02 163.897 189.86C164.443 189.7 165.043 189.62 165.697 189.62C166.19 189.62 166.677 189.667 167.157 189.76C167.637 189.84 168.07 189.953 168.457 190.1V189.38C168.457 188.607 168.237 188.007 167.797 187.58C167.357 187.14 166.723 186.92 165.897 186.92C165.337 186.92 164.783 187.027 164.237 187.24C163.703 187.44 163.15 187.733 162.577 188.12L161.897 186.72C163.243 185.813 164.643 185.36 166.097 185.36C167.537 185.36 168.657 185.727 169.457 186.46C170.257 187.193 170.657 188.247 170.657 189.62V193.4C170.657 193.867 170.85 194.107 171.237 194.12V196C171.023 196.04 170.837 196.067 170.677 196.08C170.53 196.093 170.383 196.1 170.237 196.1C169.81 196.1 169.477 195.993 169.237 195.78C169.01 195.567 168.87 195.293 168.817 194.96L168.757 194.3C168.29 194.913 167.71 195.387 167.017 195.72C166.337 196.04 165.603 196.2 164.817 196.2ZM165.417 194.58C165.95 194.58 166.45 194.487 166.917 194.3C167.397 194.1 167.77 193.827 168.037 193.48C168.317 193.24 168.457 192.987 168.457 192.72V191.34C168.083 191.193 167.683 191.08 167.257 191C166.843 190.92 166.437 190.88 166.037 190.88C165.25 190.88 164.603 191.053 164.097 191.4C163.603 191.733 163.357 192.18 163.357 192.74C163.357 193.26 163.55 193.7 163.937 194.06C164.323 194.407 164.817 194.58 165.417 194.58ZM189.326 196H187.126V190.14C187.126 189.167 186.966 188.453 186.646 188C186.326 187.547 185.859 187.32 185.246 187.32C184.619 187.32 184.046 187.553 183.526 188.02C183.019 188.473 182.653 189.067 182.426 189.8V196H180.226V190.14C180.226 189.153 180.066 188.44 179.746 188C179.426 187.547 178.966 187.32 178.366 187.32C177.739 187.32 177.166 187.547 176.646 188C176.126 188.453 175.753 189.047 175.526 189.78V196H173.326V185.54H175.326V187.64C175.739 186.907 176.279 186.347 176.946 185.96C177.626 185.56 178.399 185.36 179.266 185.36C180.133 185.36 180.813 185.587 181.306 186.04C181.813 186.493 182.126 187.06 182.246 187.74C182.686 186.967 183.239 186.38 183.906 185.98C184.573 185.567 185.333 185.36 186.186 185.36C186.799 185.36 187.306 185.48 187.706 185.72C188.119 185.947 188.446 186.253 188.686 186.64C188.926 187.027 189.093 187.48 189.186 188C189.279 188.507 189.326 189.047 189.326 189.62V196Z" fill="white"/>
<g opacity="0.5" clip-path="url(#clip0_682_2578)">
<path d="M119.503 99.4197C114.971 99.4197 111.285 103.106 111.285 107.638C111.285 112.22 114.967 115.994 119.494 116.052C119.53 116.053 119.566 116.053 119.603 116.053C121.821 116.053 123.905 115.19 125.48 113.615C127.081 112.014 127.946 109.888 127.918 107.628C127.86 103.102 124.085 99.4197 119.503 99.4197ZM124.444 112.579C123.125 113.898 121.375 114.614 119.512 114.588C115.783 114.54 112.75 111.422 112.75 107.638C112.75 103.914 115.779 100.885 119.503 100.885C123.287 100.885 126.405 103.918 126.453 107.647C126.477 109.508 125.763 111.26 124.444 112.579Z" fill="white"/>
<path d="M157.268 96.1347H155.644L147.587 80.2404C147.094 79.2668 146.109 78.6619 145.018 78.6619H138.72C137.508 78.6619 136.522 79.6477 136.522 80.8593C136.522 82.0709 137.508 83.0567 138.72 83.0567H144.088L150.718 96.1347H146.398C141.728 96.1347 137.694 98.909 135.856 102.896C135.199 102.033 134.161 101.474 132.995 101.474C131.832 101.474 130.798 102.029 130.14 102.887C128.3 98.905 124.269 96.1348 119.602 96.1348H115.271L118.693 89.3844C118.876 89.0237 118.732 88.5829 118.371 88.4C118.01 88.2173 117.569 88.3613 117.387 88.7222L113.629 96.1347H111.987L119.708 80.9026C119.95 80.424 120.434 80.1268 120.971 80.1268H127.269C127.673 80.1268 128.001 80.4553 128.001 80.8592C128.001 81.2631 127.673 81.5916 127.269 81.5916H121.451C121.175 81.5916 120.922 81.7467 120.797 81.9929L118.829 85.8752C118.647 86.236 118.791 86.6767 119.152 86.8596C119.512 87.0423 119.953 86.8983 120.136 86.5374L121.901 83.0565H127.269C128.481 83.0565 129.466 82.0707 129.466 80.8591C129.466 79.6475 128.481 78.6617 127.269 78.6617H120.971C119.879 78.6617 118.895 79.2666 118.401 80.2402L110.344 96.1347H108.732C108.328 96.1347 108 96.4626 108 96.8671V107.736C108 114.133 113.204 119.338 119.602 119.338C125.999 119.338 131.203 114.133 131.203 107.736C131.203 106.779 131.086 105.849 130.866 104.958C130.925 103.835 131.857 102.939 132.995 102.939C134.146 102.939 135.086 103.857 135.124 104.999C134.911 105.877 134.797 106.794 134.797 107.736C134.797 110.555 135.82 113.273 137.678 115.388C139.519 117.484 142.047 118.848 144.796 119.228C144.83 119.233 144.864 119.235 144.898 119.235C145.258 119.235 145.572 118.969 145.622 118.603C145.678 118.202 145.398 117.832 144.997 117.777C140.017 117.089 136.262 112.772 136.262 107.736C136.262 102.147 140.809 97.5996 146.398 97.5996H156.535V107.736C156.535 112.765 152.935 116.977 147.976 117.751C147.576 117.813 147.303 118.188 147.365 118.588C147.428 118.987 147.801 119.261 148.202 119.198C150.906 118.776 153.385 117.397 155.183 115.315C157 113.211 158 110.52 158 107.736V96.8672C158 96.4626 157.672 96.1347 157.268 96.1347ZM119.602 117.873C114.012 117.873 109.465 113.326 109.465 107.736V97.5996H119.602C124.296 97.5996 128.254 100.807 129.402 105.146C129.409 105.217 129.427 105.285 129.454 105.349C129.639 106.115 129.738 106.914 129.738 107.736C129.738 113.326 125.191 117.873 119.602 117.873ZM145.191 81.9931C145.067 81.7469 144.814 81.5917 144.538 81.5917H138.72C138.316 81.5917 137.987 81.2632 137.987 80.8593C137.987 80.4554 138.316 80.1269 138.72 80.1269H145.018C145.554 80.1269 146.038 80.4241 146.281 80.9027L154.002 96.1348H152.36L145.191 81.9931Z" fill="white"/>
<path d="M154.715 107.638C154.715 103.106 151.028 99.4197 146.497 99.4197C141.915 99.4197 138.14 103.102 138.082 107.628C138.054 109.888 138.919 112.014 140.52 113.615C142.095 115.19 144.178 116.053 146.397 116.053C146.433 116.053 146.47 116.053 146.506 116.052C151.033 115.994 154.715 112.22 154.715 107.638ZM146.488 114.588C144.623 114.61 142.875 113.898 141.556 112.579C140.237 111.26 139.523 109.508 139.547 107.647C139.595 103.918 142.712 100.885 146.497 100.885C150.221 100.885 153.25 103.914 153.25 107.638C153.25 111.422 150.217 114.54 146.488 114.588Z" fill="white"/>
</g>
<path fill-rule="evenodd" clip-rule="evenodd" d="M79.6145 85.3974L83.4996 70.8978L69 74.783L79.6145 85.3974ZM78.6392 81.7577L80.8352 73.5623L72.6397 75.7582L78.6392 81.7577Z" fill="url(#paint0_linear_682_2578)"/>
<path fill-rule="evenodd" clip-rule="evenodd" d="M179.863 72.5585L181.172 87.5125L193.468 78.9025L179.863 72.5585ZM182.025 75.6452L182.764 84.0974L189.714 79.2309L182.025 75.6452Z" fill="url(#paint1_linear_682_2578)"/>
<path d="M137.877 50L141.342 56H134.413L137.877 50Z" fill="url(#paint2_linear_682_2578)"/>
<path d="M190.363 112.828L188.569 119.521L183.67 114.622L190.363 112.828Z" fill="url(#paint3_linear_682_2578)"/>
<path d="M88.5344 119.193L94.5344 122.657L88.5344 126.121L88.5344 119.193Z" fill="url(#paint4_linear_682_2578)"/>
<rect x="1" y="1" width="260" height="252" stroke="#F8F8FC" stroke-opacity="0.1" stroke-width="2"/>
<defs>
<linearGradient id="paint0_linear_682_2578" x1="79.6145" y1="85.3974" x2="75.1283" y2="68.6547" gradientUnits="userSpaceOnUse">
<stop stop-color="#FF455B"/>
<stop offset="1" stop-color="#FF7245"/>
</linearGradient>
<linearGradient id="paint1_linear_682_2578" x1="179.863" y1="72.5585" x2="189.805" y2="86.7572" gradientUnits="userSpaceOnUse">
<stop stop-color="#FF455B"/>
<stop offset="1" stop-color="#FF7245"/>
</linearGradient>
<linearGradient id="paint2_linear_682_2578" x1="137.877" y1="50" x2="137.877" y2="60.6667" gradientUnits="userSpaceOnUse">
<stop stop-color="#FF455B"/>
<stop offset="1" stop-color="#FF7245"/>
</linearGradient>
<linearGradient id="paint3_linear_682_2578" x1="190.363" y1="112.828" x2="182.82" y2="120.371" gradientUnits="userSpaceOnUse">
<stop stop-color="#FF455B"/>
<stop offset="1" stop-color="#FF7245"/>
</linearGradient>
<linearGradient id="paint4_linear_682_2578" x1="88.5344" y1="119.193" x2="93.8677" y2="128.43" gradientUnits="userSpaceOnUse">
<stop stop-color="#FF455B"/>
<stop offset="1" stop-color="#FF7245"/>
</linearGradient>
<clipPath id="clip0_682_2578">
<rect width="50" height="50" fill="white" transform="translate(108 74)"/>
</clipPath>
</defs>
</svg>
